<?xml version="1.0" encoding="utf-8"?>
<!-- Generator: Adobe Illustrator 17.0.0, SVG Export Plug-In . SVG Version: 6.00 Build 0)  -->
<!DOCTYPE svg PUBLIC "-//W3C//DTD SVG 1.1//EN" "http://www.w3.org/Graphics/SVG/1.1/DTD/svg11.dtd">
<svg version="1.1" id="Layer_1" xmlns="http://www.w3.org/2000/svg" xmlns:xlink="http://www.w3.org/1999/xlink" x="0px" y="0px"
	 width="215px" height="215px" viewBox="0 0 215 215" enable-background="new 0 0 215 215" xml:space="preserve">
<g>
	<g>
		<circle fill="#FFCA38" cx="107.5" cy="107.5" r="106.422"/>
	</g>
	<g>
		<path fill="#FFFFFF" d="M107.5,174.187c-36.771,0-66.686-29.916-66.686-66.687c0-36.771,29.915-66.686,66.686-66.686
			c36.771,0,66.687,29.915,66.687,66.686C174.187,144.271,144.271,174.187,107.5,174.187z"/>
		<path fill="#00184A" d="M107.5,42.814c35.668,0,64.687,29.018,64.687,64.686c0,35.668-29.018,64.687-64.687,64.687
			c-35.668,0-64.686-29.018-64.686-64.687C42.814,71.832,71.832,42.814,107.5,42.814 M107.5,38.814
			c-37.937,0-68.686,30.749-68.686,68.686c0,37.932,30.749,68.687,68.686,68.687c37.932,0,68.687-30.755,68.687-68.687
			C176.186,69.563,145.432,38.814,107.5,38.814L107.5,38.814z"/>
	</g>
	<g>
		<path fill="#FFFFFF" d="M159.605,77.386h6.143l-0.311,1.34c-0.918,3.946-7.739,8.188-12.388,10.668h5.751l-0.971,1.648
			c-2.787,4.725-9.884,7.761-15.849,9.559h5.947l-1.781,1.851c-8.002,8.311-20.958,8.909-26.676,8.721
			c1.626,1.73,4.558,4.913,4.558,4.913l-2.048,0.299c-5.49,0.801-15.951,0.119-20.35-0.225c1.112,1.838,3.821,5.346,3.821,5.346
			l-2.107,0.092c-3.231,0.142-8.946-1.371-12.367-2.385c2.47,4.028,13.905,22.679,13.905,22.679
			c1.291,2.407,1.891,4.515,1.891,6.634c0,4.952-2.852,9.576-8.032,13.019c-5.042,3.351-11.724,5.198-18.817,5.198
			c-7.094,0-13.776-1.847-18.819-5.198c-5.179-3.443-8.032-8.067-8.032-13.019c0-4.951,2.853-9.574,8.032-13.018
			c5.043-3.352,11.724-5.199,18.819-5.199c2.776,0,5.534,0.278,8.114,0.808c-2.589-4.229-41.836-68.342-41.836-68.342h9.757
			c0,0,9.281,14.689,9.818,15.536c2.249,0.189,7.02,0.032,8.637-2.531c1.402-2.221,0.377-6.137-2.964-11.321l-1.086-1.684H173.33
			l-0.479,1.437C171.072,69.563,163.995,74.654,159.605,77.386 M175.208,61.367H68.152l2.286,3.748
			c2.978,4.622,4.057,8.274,2.96,10.019c-1.165,1.851-4.805,2.097-6.917,2.01l-9.851-15.778h-12.78l41.564,68.088
			c-1.792-0.232-3.636-0.352-5.486-0.352c-9.243,0-17.877,3.113-23.093,8.329c-3.248,3.249-4.965,7.086-4.965,11.096
			c0,4.01,1.717,7.847,4.965,11.096c5.217,5.216,13.85,8.331,23.093,8.331c15.471,0,28.059-8.715,28.059-19.426
			c0-2.539-0.718-4.852-2.079-7.306l-12.038-19.615c8.564,2.351,13.775,1.015,13.775,1.015s-3.193-4.49-3.549-5.037
			c15.204,1.729,22.376-0.833,22.376-0.833s-3.451-3.587-4.152-4.384c19.406,0.185,28.246-12.483,28.246-12.483h-3.728
			c10.899-2.677,14.635-11.689,14.635-11.689h-3.86c9.914-5.204,10.264-12.019,10.264-12.019h-3.896
			C174.874,68.764,175.208,61.367,175.208,61.367"/>
		<path fill="#FFCA38" d="M156.22,77.656H78.375l0.787,1.217h84.676c-1.627,4.243-11.538,9.298-14.67,10.808H85.878l0.829,1.2
			h69.449c-4.072,5.807-15.854,8.833-21.15,9.932H92.645l0.785,1.276h50.942c-9.914,9.365-27.392,7.44-27.571,7.421l-1.097-0.13
			c0,0,4.356,4.602,5.301,5.622c-7.041,0.794-21.108-0.478-21.255-0.49l-0.675-0.062l0.28,0.617c0.797,1.76,2.356,3.967,3.147,5.041
			c-4.736-0.158-13.754-3.144-13.85-3.176l-1.027-0.342l15.959,26.027c1.175,2.192,1.704,4.022,1.704,5.911
			c0,9.226-11.378,16.73-25.362,16.73c-13.986,0-25.363-7.504-25.363-16.73c0-9.224,11.377-16.729,25.363-16.729
			c3.603,0,7.171,0.48,10.32,1.39l0.977,0.282c0,0-41.643-68.027-42.365-69.207h6.284c0.226,0.359,9.762,15.45,9.762,15.45
			l0.184,0.024c0.324,0.042,7.966,0.982,10.584-3.158c0.562-0.891,0.843-1.94,0.843-3.146c0-2.432-1.158-5.504-3.438-9.171h98.165
			C168.834,70.195,159.173,75.993,156.22,77.656 M70.366,62.776l1.086,1.684c3.341,5.184,4.366,9.1,2.964,11.321
			c-1.617,2.563-6.387,2.72-8.637,2.531c-0.536-0.847-9.818-15.536-9.818-15.536h-9.757c0,0,39.247,64.113,41.836,68.342
			c-2.58-0.53-5.338-0.808-8.114-0.808c-7.094,0-13.776,1.847-18.819,5.199c-5.179,3.444-8.032,8.067-8.032,13.018
			c0,4.952,2.853,9.576,8.032,13.019c5.043,3.351,11.724,5.198,18.819,5.198c7.092,0,13.775-1.847,18.817-5.198
			c5.18-3.443,8.032-8.067,8.032-13.019c0-2.119-0.601-4.227-1.891-6.634c0,0-11.434-18.651-13.905-22.679
			c3.42,1.014,9.136,2.527,12.367,2.385l2.107-0.092c0,0-2.709-3.507-3.821-5.346c4.398,0.343,14.859,1.025,20.35,0.225l2.048-0.299
			c0,0-2.932-3.182-4.558-4.913c5.718,0.187,18.674-0.411,26.676-8.721l1.781-1.851h-5.947c5.965-1.799,13.062-4.834,15.849-9.559
			l0.971-1.648h-5.751c4.649-2.48,11.47-6.722,12.388-10.668l0.311-1.34h-6.143c4.39-2.732,11.467-7.823,13.246-13.173l0.479-1.437
			H70.366z"/>
		<path fill="#00184A" d="M163.982,76.177h3.896c0,0-0.35,6.815-10.264,12.019h3.86c0,0-3.736,9.012-14.635,11.689h3.728
			c0,0-8.84,12.668-28.246,12.483c0.701,0.797,4.152,4.384,4.152,4.384s-7.172,2.562-22.376,0.833
			c0.356,0.547,3.549,5.037,3.549,5.037s-5.211,1.336-13.775-1.015l12.038,19.615c1.361,2.454,2.079,4.768,2.079,7.306
			c0,10.711-12.588,19.426-28.059,19.426c-9.243,0-17.877-3.114-23.093-8.331c-3.248-3.249-4.965-7.085-4.965-11.096
			c0-4.009,1.717-7.846,4.965-11.096c5.217-5.216,13.85-8.329,23.093-8.329c1.85,0,3.694,0.119,5.486,0.352L43.849,61.367h12.78
			l9.851,15.778c2.111,0.087,5.752-0.16,6.917-2.01c1.098-1.745,0.019-5.397-2.96-10.019l-2.286-3.748h107.056
			C175.208,61.367,174.874,68.764,163.982,76.177 M177.902,59.365H64.587l4.142,6.791l0.014,0.022l0.014,0.02
			c3.554,6.325,4.855,9.128-1.16,8.956l-9.858-15.79H40.282l41.371,67.77c-0.576-0.022-1.151-0.035-1.726-0.035
			c-9.762,0-18.925,3.335-24.507,8.916c-3.633,3.633-5.553,7.96-5.553,12.511c0,4.554,1.92,8.879,5.553,12.513
			c5.582,5.581,14.744,8.915,24.507,8.915c16.575,0,30.059-9.612,30.059-21.427c0-2.782-0.74-5.412-2.328-8.277l-9.64-15.71
			c6.08,1.353,12.919-0.581,12.919-0.581s-2.173-3.212-2.728-3.987c12.551,0.877,18.655-1.235,18.936-1.337l2.947-1.054
			l-3.344-3.431c4.363-0.264,8.114-1.284,11.285-2.663c10.385-4.248,15.935-11.895,15.935-11.895h-1.102
			c0.866-0.463,1.658-0.953,2.381-1.464c6.891-4.368,9.329-11.296,9.329-11.296h-1.074c6.064-5.125,7.077-12.009,7.077-12.009
			h-1.555C177.19,68.393,177.902,59.365,177.902,59.365"/>
		<path fill="#00184A" d="M73.077,64.263c2.28,3.667,3.438,6.739,3.438,9.171c0,1.206-0.281,2.255-0.843,3.146
			c-2.617,4.14-10.259,3.2-10.584,3.158l-0.184-0.024c0,0-9.536-15.092-9.762-15.45h-6.284c0.722,1.18,42.365,69.207,42.365,69.207
			l-0.977-0.282c-3.149-0.909-6.718-1.39-10.32-1.39c-13.986,0-25.363,7.505-25.363,16.729c0,9.226,11.377,16.73,25.363,16.73
			c13.984,0,25.362-7.504,25.362-16.73c0-1.889-0.529-3.719-1.704-5.911L87.625,116.59l1.027,0.342
			c0.096,0.032,9.114,3.018,13.85,3.176c-0.791-1.074-2.351-3.281-3.147-5.041l-0.28-0.617l0.675,0.062
			c0.147,0.012,14.214,1.284,21.255,0.49c-0.945-1.02-5.301-5.622-5.301-5.622l1.097,0.13c0.179,0.02,17.657,1.945,27.571-7.421
			H93.43l-0.785-1.276h42.361c5.296-1.098,17.079-4.125,21.15-9.932H86.707l-0.829-1.2h63.289
			c3.132-1.511,13.043-6.566,14.67-10.808H79.162l-0.787-1.217h77.845c2.952-1.663,12.614-7.461,15.022-13.393H73.077z"/>
	</g>
	<g>
		<path fill="#00184A" d="M66.503,173.456l6.646,3.353c4.608,2.326,4.691,5.04,3.242,7.912c-0.677,1.343-1.956,2.15-3.314,2.308
			c0.947,1.175,1.289,2.916,0.284,4.908c-1.531,3.034-4.02,4.741-8.882,2.287l-6.739-3.399L66.503,173.456z M67.973,186.836
			l-2.014-1.017l-1.799,3.566l2.014,1.017c1.158,0.584,1.96,0.089,2.498-0.977C69.221,188.337,69.109,187.409,67.973,186.836z
			 M70.92,180.363l-1.76-0.888l-1.518,3.01l1.76,0.888c1.088,0.55,1.716-0.063,2.102-0.827
			C71.89,181.781,72.009,180.911,70.92,180.363z"/>
		<path fill="#00184A" d="M85.714,197.219l7.12,1.664l-1.02,4.368l-12.07-2.82l4.424-18.937l4.948,1.156L85.714,197.219z"/>
		<path fill="#00184A" d="M110.988,197.552l-0.208-12.758l5.082-0.083l0.215,13.146c0.089,5.394-3.935,6.782-7.435,6.84
			c-3.475,0.056-7.567-1.2-7.655-6.593l-0.215-13.146l5.082-0.083l0.209,12.758c0.036,2.204,1.21,2.599,2.506,2.578
			C109.891,200.189,111.024,199.755,110.988,197.552z"/>
		<path fill="#00184A" d="M136.272,191.988l-7.014,1.878l0.845,3.156l7.716-2.065l1.16,4.334l-12.626,3.38l-5.029-18.789
			l12.626-3.379l1.16,4.334l-7.716,2.065l0.704,2.63l7.014-1.877L136.272,191.988z"/>
		<path fill="#00184A" d="M157.479,183.468c2.378,4.317,0.441,7.25-3.694,9.528c-2.226,1.227-4.542,1.969-6.239,1.898l-2.246-4.183
			c1.313,0.017,3.69-0.345,5.871-1.547c2.067-1.139,2.494-2.085,1.981-3.017c-0.577-1.045-1.456-0.975-2.896-0.418
			c-4.479,1.816-6.803,1.736-8.857-1.991c-1.841-3.339-0.947-6.555,3.71-9.122c2.385-1.315,4.408-1.837,5.509-1.881l2.173,4.105
			c-1.379,0.078-3.523,0.756-5.112,1.632c-1.726,0.951-2.35,1.917-1.861,2.803c0.55,0.999,1.45,0.859,2.924,0.254
			C152.933,179.842,155.363,179.628,157.479,183.468z"/>
	</g>
	<g>
		<path fill="#00184A" d="M64.056,37.757l6.239-3.814l2.339,3.827l-10.575,6.464L51.917,27.641l4.336-2.65L64.056,37.757z"/>
		<path fill="#00184A" d="M77.638,35.735l-6.885-18.195l4.755-1.8l6.885,18.195L77.638,35.735z"/>
		<path fill="#00184A" d="M94.414,15.748l2.505,14.757l-5.012,0.851l-2.506-14.757L84.9,17.364l-0.751-4.425l14.015-2.38
			l0.751,4.424L94.414,15.748z"/>
		<path fill="#00184A" d="M116.993,15.318l-1.11,14.92l-5.068-0.377l1.11-14.921l-4.551-0.339l0.332-4.473l14.171,1.054
			l-0.333,4.473L116.993,15.318z"/>
		<path fill="#00184A" d="M131.709,28.971l6.969,2.218l-1.361,4.275l-11.813-3.759l5.899-18.534l4.843,1.541L131.709,28.971z"/>
		<path fill="#00184A" d="M156.632,37.362l-6.219-3.751l-1.688,2.798l6.84,4.126l-2.318,3.842l-11.192-6.751l10.046-16.656
			l11.193,6.751l-2.318,3.842l-6.84-4.126l-1.407,2.332l6.219,3.751L156.632,37.362z"/>
	</g>
	<g>
		<path fill="#00184A" d="M172.09,47.44l-2.02,2.02c14.152,15.245,22.821,35.647,22.821,58.039c0,22.393-8.669,42.795-22.822,58.04
			l2.02,2.02c14.669-15.764,23.659-36.88,23.659-60.06C195.748,84.319,186.759,63.204,172.09,47.44z"/>
		<path fill="#00184A" d="M22.109,107.499c0-22.392,8.669-42.794,22.821-58.039l-2.02-2.02
			c-14.669,15.763-23.658,36.879-23.658,60.059c0,23.18,8.99,44.296,23.659,60.06l2.02-2.02
			C30.778,150.294,22.109,129.892,22.109,107.499z"/>
	</g>
</g>
</svg>
