<?xml version="1.0" encoding="utf-8"?>
<!-- Generator: Adobe Illustrator 17.0.0, SVG Export Plug-In . SVG Version: 6.00 Build 0)  -->
<!DOCTYPE svg PUBLIC "-//W3C//DTD SVG 1.1//EN" "http://www.w3.org/Graphics/SVG/1.1/DTD/svg11.dtd">
<svg version="1.1" id="Layer_1" xmlns="http://www.w3.org/2000/svg" xmlns:xlink="http://www.w3.org/1999/xlink" x="0px" y="0px"
	 width="215px" height="27.784px" viewBox="0 0 215 27.784" enable-background="new 0 0 215 27.784" xml:space="preserve">
<g>
	<path fill="#FFFFFF" d="M55.702,18.918h-2.828v-7.555h-4.554V8.919h7.382V18.918z M63.86,11.381h-4.559v7.536h-2.827V8.919h7.385
		V11.381z"/>
	<path fill="#FFFFFF" d="M87.929,18.893h-2.828v-7.551h-4.553V8.893h7.381V18.893z M96.085,11.362h-4.556v7.531h-2.828v-10h7.384
		V11.362z"/>
	<path fill="#FFFFFF" d="M134.203,18.918h-2.827V8.919h2.827V18.918z M144.208,18.918h-2.89v-3.8h-5.308v-2.434h5.308V8.919h2.89
		V18.918z"/>
	<path fill="#FFFFFF" d="M177.115,18.918h-2.827V8.919h2.827V18.918z M187.796,18.918h-4.186l-4.738-3.8v-2.293l4.525-3.905h3.814
		l-5.698,5.017L187.796,18.918z"/>
	<rect x="205.482" y="16.405" fill="#FFFFFF" width="4.872" height="2.513"/>
	<rect x="51.656" y="13.88" fill="#FFFFFF" width="8.868" height="2.196"/>
	<rect x="83.886" y="13.856" fill="#FFFFFF" width="8.863" height="2.195"/>
	<path fill="#FFFFFF" d="M75.594,8.919h-6.782c-1.89,0-3.421,1.533-3.421,3.423v3.12c0,1.894,1.532,3.424,3.421,3.424h6.782
		c1.89,0,3.421-1.529,3.421-3.424v-3.12C79.016,10.452,77.485,8.919,75.594,8.919z M76.131,14.881c0,0.841-0.683,1.524-1.522,1.524
		h-4.81c-0.841,0-1.52-0.683-1.52-1.524v-1.963c0-0.837,0.679-1.515,1.52-1.515h4.81c0.839,0,1.522,0.678,1.522,1.515V14.881z"/>
	<path fill="#FFFFFF" d="M156.183,8.919h-6.78c-1.892,0-3.423,1.533-3.423,3.423v3.12c0,1.894,1.531,3.424,3.423,3.424h6.78
		c1.89,0,3.42-1.529,3.42-3.424v-3.12C159.603,10.452,158.073,8.919,156.183,8.919z M156.717,14.881
		c0,0.841-0.681,1.524-1.519,1.524h-4.811c-0.84,0-1.521-0.683-1.521-1.524v-1.963c0-0.837,0.681-1.515,1.521-1.515h4.811
		c0.839,0,1.519,0.678,1.519,1.515V14.881z"/>
	<path fill="#FFFFFF" d="M212.237,8.919v2.239c0,0.838-0.682,1.523-1.522,1.523h-4.808c-0.841,0-1.523-0.685-1.523-1.523
		c0,0-0.009-2.156,0-2.239H201.5v2.819c0,1.891,1.531,3.424,3.42,3.424h6.783c1.888,0,3.421-1.532,3.421-3.424V8.919H212.237z"/>
	<path fill="#FFFFFF" d="M192.049,8.919c-0.224,0-0.367,0.016-0.649,0.061c-0.509,0.091-1.213,0.382-1.782,0.946
		c-0.567,0.566-0.991,1.469-0.991,2.41v3.125c0,1.889,1.534,3.418,3.422,3.418c0,0,7.435,0,7.682,0v-2.474h-6.698
		c-0.734,0-1.344-0.527-1.495-1.287h8.134v-2.33h-8.145c-0.002,0.044-0.002,0.041,0,0l0,0c0.068-0.776,0.712-1.384,1.506-1.384
		h6.698V8.919H192.049z"/>
	<path opacity="0.2" fill="#FFFFFF" d="M163.559,12.598c0.017-0.078,0.04-0.149,0.065-0.219
		C163.593,12.452,163.569,12.523,163.559,12.598z"/>
	<path fill="#FFFFFF" d="M164.795,8.919c-0.197,0-0.392,0.019-0.581,0.052c-1.612,0.276-2.84,1.678-2.84,3.371v3.12
		c0,1.894,1.532,3.424,3.42,3.424h7.721v-2.481h-6.734c-0.733,0-1.362-0.555-1.488-1.214c-0.008-0.038-0.009-2.457-0.009-2.457
		c0-0.291,0.206-0.596,0.235-0.635c0.134-0.196,0.369-0.416,0.506-0.49c0.249-0.135,0.477-0.207,0.756-0.207h6.734V8.919H164.795z"
		/>
	<path fill="#FFFFFF" d="M111.477,11.177c-0.167-0.366-0.395-0.718-0.695-1.058c-0.295-0.339-0.641-0.615-1.028-0.826
		c-0.391-0.214-0.803-0.321-1.238-0.321H98.172v2.431h9.163c0.278,0,0.522,0.065,0.729,0.194c0.208,0.126,0.368,0.287,0.483,0.48
		c0.113,0.195,0.17,0.386,0.17,0.57v0.883v0.015c-0.026-0.041-0.057-0.085-0.089-0.125c-0.027-0.024-0.045-0.048-0.07-0.072
		c-0.002-0.003-0.006-0.008-0.011-0.015c-0.363-0.36-0.86-0.587-1.408-0.603h-7.041c-1.109,0.032-2.003,0.975-2.025,2.086
		c0.004,0.541,0.019,1.754,0.028,2.307c0.141,1.014,1.009,1.797,2.063,1.797h6.91c0.583,0,1.147-0.196,1.531-0.574
		c0.045-0.051,0.111-0.123,0.111-0.123v0.697h3.006v-6.765C111.723,11.869,111.64,11.541,111.477,11.177z M107.552,16.485h-5.961
		c0,0-0.597,0.016-0.597-0.676c0-0.69,0.597-0.67,0.597-0.67h5.961c0,0,0.6,0.064,0.6,0.672
		C108.151,16.417,107.552,16.485,107.552,16.485z"/>
	<path fill="#FFFFFF" d="M118.183,16.461c-0.84,0-1.52-0.681-1.52-1.521l0.002-5.994h-2.887v6.576c0,0.138,0.011,0.277,0.026,0.412
		c0.202,1.692,1.643,3.011,3.395,3.011h7.708v-2.484H118.183z"/>
	<path fill="#FFFFFF" d="M29.451,0H9.479C4.872,0,0.884,3.389,0.204,7.882C0.132,8.351,0.093,8.83,0.093,9.305v9.215
		c0,5.109,4.208,9.265,9.38,9.265h19.973c4.607,0,8.593-3.389,9.272-7.882c0.073-0.466,0.11-0.945,0.11-1.425V9.263
		C38.828,4.155,34.621,0,29.451,0z M35.456,10.055v7.635c0,4.203-3.462,7.622-7.715,7.622H11.188c-4.254,0-7.715-3.419-7.715-7.622
		v-7.635c0-4.204,3.46-7.624,7.715-7.624h16.553C31.994,2.43,35.456,5.851,35.456,10.055z"/>
	<g>
		<g>
			<polygon fill="#FFFFFF" points="7.685,6.295 7.668,11.545 14.698,11.545 14.698,22.545 18.832,22.545 18.832,6.295 			"/>
			<polygon fill="#FFFFFF" points="20.178,6.285 20.178,22.545 24.236,22.545 24.236,11.545 31.255,11.545 31.255,6.285 			"/>
		</g>
		<rect x="13.229" y="15.427" fill="#FFFFFF" width="12.463" height="3.887"/>
	</g>
</g>
</svg>
